# xmcd
#
# Track frame offsets: 
#        150
#        32656
#        50858
#        87238
#        110699
#        127247
#        167050
#        183825
#        213395
#        245061
#        276744
#        292566
#
# Disc length: 4224 seconds
#
# Revision: 0
# Processed by: cddbd v1.5.2PL0 Copyright (c) Steve Scherf et al.
# Submitted via: ExactAudioCopyFreeDBPlugin 1.0
#
DISCID=b9107e0c
DTITLE=Alexander O'Neal - All True Man [Expanded]
DYEAR=1991
DGENRE=
TTITLE0=All True Man (Classic Dub Mix)
TTITLE1=All True Man (Radio Mix)
TTITLE2=All True Man (Big House Mix)
TTITLE3=All True Man (Big House Instrumental)
TTITLE4=The Yoke (G.U.O.T.R.) [Radio Edit]
TTITLE5=The Yoke (G.U.O.T.R.) [Remix]
TTITLE6=The Yoke (G.U.O.T.R.) [Radio Edit #2]
TTITLE7=The Yoke (G.U.O.T.R.) [Dub]
TTITLE8=What Is This Thing Called Love? (One World Club Remix)
TTITLE9=What Is This Thing Called Love? (One World Club Dub)
TTITLE10=What Is This Thing Called Love? (Dee Classic Radio Mix)
TTITLE11=Hang On (Special Version)
EXTD=
EXTT0=
EXTT1=
EXTT2=
EXTT3=
EXTT4=
EXTT5=
EXTT6=
EXTT7=
EXTT8=
EXTT9=
EXTT10=
EXTT11=
PLAYORDER=
